<svg xmlns="http://www.w3.org/2000/svg" version="1.1" xmlns:xlink="http://www.w3.org/1999/xlink" xmlns:svgjs="http://svgjs.dev/svgjs" width="1000" height="1125" viewBox="0 0 1000 1125"><g transform="matrix(1,0,0,1,0.0005762637636053114,0)"><svg viewBox="0 0 320 360" data-background-color="#ffffff" preserveAspectRatio="xMidYMid meet" height="1125" width="1000" xmlns="http://www.w3.org/2000/svg" xmlns:xlink="http://www.w3.org/1999/xlink"><g id="tight-bounds" transform="matrix(1,0,0,1,0.00018440440442191175,0)"><svg viewBox="0 0 320 360" height="360" width="320"><g><svg></svg></g><g><svg viewBox="0 0 320 360" height="360" width="320"><g><path xmlns="http://www.w3.org/2000/svg" d="M294.684 112.125c-8.775-10.699-25.381-16.201-43-22.006-7.56-2.498-15.357-5.097-22.985-8.235-7.695-3.173-15.256-7.257-22.613-11.172-14.952-8.033-30.41-16.336-46.105-16.336-15.661 0-31.119 8.303-46.071 16.336-7.358 3.949-14.952 8.033-22.648 11.205-7.594 3.139-15.425 5.704-22.985 8.236-17.618 5.839-34.224 11.341-42.999 22.006-11.712 14.277-11.442 35.439-11.172 57.817 0.034 3.375 0.068 6.717 0.067 10.024 0 3.308-0.034 6.649-0.101 10.024-0.27 22.411-0.54 43.54 11.172 57.851 8.775 10.666 25.381 16.167 42.966 22.006 7.56 2.498 15.357 5.097 23.019 8.235 7.695 3.173 15.256 7.223 22.579 11.172 14.986 8.067 30.444 16.37 46.105 16.37 15.695 0 31.153-8.303 46.105-16.336 7.358-3.949 14.918-8.033 22.614-11.172 7.594-3.139 15.357-5.704 22.884-8.202 17.72-5.873 34.326-11.374 43.101-22.039 11.712-14.277 11.442-35.439 11.171-57.817-0.034-3.409-0.101-6.75-0.101-10.058 0-3.308 0.034-6.649 0.101-9.991 0.371-22.479 0.641-43.641-11.104-57.918zM305.552 103.215c-15.728-19.171-45.801-23.727-71.486-34.326-22.985-9.45-46.375-28.588-74.051-28.587-27.676 0-51.066 19.137-74.052 28.587-25.719 10.598-55.758 15.155-71.486 34.326-17.078 20.791-14.311 50.121-14.311 76.785 0 26.63-2.768 55.994 14.277 76.785 15.728 19.171 45.801 23.727 71.487 34.326 22.985 9.484 46.375 28.588 74.051 28.587 27.676 0 51.066-19.103 74.051-28.587 25.719-10.598 55.758-15.155 71.486-34.326 17.045-20.791 14.277-50.121 14.277-76.785 0.068-26.664 2.835-55.994-14.243-76.785zM309.872 189.923c0.304 23.221 0.574 45.059-12.083 60.483-9.518 11.577-26.664 17.281-44.822 23.289-7.56 2.498-15.29 5.063-22.715 8.134-7.493 3.071-14.952 7.088-22.175 10.969-15.458 8.303-31.355 16.842-48.062 16.842-16.707 0-32.604-8.539-47.995-16.808-7.257-3.915-14.75-7.932-22.243-11.003-7.527-3.105-15.256-5.67-22.748-8.134-18.192-6.008-35.338-11.712-44.823-23.289-12.623-15.391-12.353-37.262-12.083-60.415 0.034-3.375 0.101-6.683 0.101-9.991 0-3.308-0.034-6.615-0.067-9.991-0.304-23.154-0.574-45.025 12.083-60.415 9.518-11.577 26.664-17.247 44.822-23.289 7.527-2.498 15.256-5.063 22.749-8.134 7.493-3.105 14.986-7.122 22.242-11.003 15.391-8.269 31.322-16.842 47.995-16.842 16.673 0 32.604 8.539 47.995 16.808 7.257 3.915 14.75 7.932 22.243 11.003 7.493 3.105 15.256 5.637 22.715 8.134 18.158 6.008 35.338 11.712 44.822 23.289 12.657 15.425 12.387 37.262 12.083 60.416-0.034 3.409-0.101 6.717-0.101 9.99 0 3.308 0.034 6.615 0.067 9.957z" fill="#a32157" fill-rule="nonzero" stroke="none" stroke-width="1" stroke-linecap="butt" stroke-linejoin="miter" stroke-miterlimit="10" stroke-dasharray="" stroke-dashoffset="0" font-family="none" font-weight="none" font-size="none" text-anchor="none" style="mix-blend-mode: normal" data-fill-palette-color="tertiary"></path></g><g transform="matrix(1,0,0,1,92.57187047232732,108)"><svg viewBox="0 0 134.85625905534536 144" height="144" width="134.85625905534536"><g><svg viewBox="0 0 134.85625905534536 144" height="144" width="134.85625905534536"><g><svg viewBox="0 0 192 205.01829276350597" height="144" width="134.85625905534536"><g transform="matrix(1,0,0,1,0,123.72755102013834)"><svg viewBox="0 0 192 81.29074174336763" height="81.29074174336763" width="192"><g id="textblocktransform"><svg viewBox="0 0 192 81.29074174336763" height="81.29074174336763" width="192" id="textblock"><g><svg viewBox="0 0 192 81.29074174336763" height="81.29074174336763" width="192"><g transform="matrix(1,0,0,1,0,0)"><svg width="192" viewBox="-3.75 -35.70000076293945 92.33999633789062 39.10000228881836" height="81.29074174336763" data-palette-color="#ffffff"><path d="M-0.45 1.9L-2.05 3.4Q-3.2 3.4-3.6 2.65L-3.6 2.65Q-3.75 2.4-3.75 2.25-3.75 2.1-3.65 2L-3.65 2Q0.9-1.35 7.15-8.5L7.15-8.5Q4.05-10.2 2.35-12.58 0.65-14.95 0.65-16.98 0.65-19 1.9-20.15 3.15-21.3 5.55-21.3L5.55-21.3Q10.1-21.3 13.3-16.05L13.3-16.05Q14.7-17.8 17.78-21.75 20.85-25.7 22.25-27.43 23.65-29.15 25.7-31.5L25.7-31.5Q29.5-35.7 31.45-35.7L31.45-35.7Q32.95-35.65 32.95-34.1L32.95-34.1Q32.95-32.45 31.83-29.58 30.7-26.7 30.03-25.03 29.35-23.35 28.03-20.58 26.7-17.8 25.95-16.18 25.2-14.55 23.65-11.38 22.1-8.2 21.5-6.95L21.5-6.95Q25.35-7.2 27.6-8.3L27.6-8.3Q28-8.5 28.1-8.75 28.2-9 28.38-9 28.55-9 28.73-8.8 28.9-8.6 28.9-8.4L28.9-8.4Q28.9-6.7 21.1-6.05L21.1-6.05Q19.15-2 18.4-0.2L18.4-0.2Q18.2 0.2 17.8 0.2L17.8 0.2Q16.75 0.2 16.75-1.8L16.75-1.8Q16.55-3.35 16.05-6.05L16.05-6.05Q12.1-6.35 8.65-7.8L8.65-7.8 8.65-7.75Q6.5-5.1 3.83-2.33 1.15 0.45-0.45 1.9L-0.45 1.9ZM19.65-6.9L19.65-6.9Q31.1-30.7 31.1-33.45L31.1-33.45Q31.1-34.3 30.5-34.3L30.5-34.3Q29.6-34.3 27.98-32.5 26.35-30.7 25.35-29.5 24.35-28.3 22.7-26.18 21.05-24.05 19.98-22.65 18.9-21.25 16.95-18.63 15-16 14.05-14.75L14.05-14.75Q15.6-11.85 16.85-7.1L16.85-7.1Q18.05-6.9 19.65-6.9ZM12.75-15.3L12.75-15.3Q9.8-20.4 5.75-20.4L5.75-20.4Q3.95-20.4 3.05-19.65 2.15-18.9 2.15-17.43 2.15-15.95 3.83-13.78 5.5-11.6 8.35-9.95L8.35-9.95Q9.85-11.7 12.75-15.3ZM13.45-13.95L13.45-13.95Q11.85-11.8 9.75-9.15L9.75-9.15Q12.7-7.75 15.75-7.25L15.75-7.25Q14.7-11.45 13.45-13.95ZM19.2-5.95L19.2-5.95 17.1-5.95 17.7-2.8Q18.3-4 19.2-5.95ZM27.35-4.15L27.35-4.15 26.1-3.35Q25.9-3.25 25.72-3.25 25.55-3.25 25.55-3.45 25.55-3.65 25.7-3.8L25.7-3.8Q26.1-4 28.22-5.63 30.35-7.25 30.97-7.25 31.6-7.25 31.6-6.53 31.6-5.8 30.07-3.55 28.55-1.3 28.55-1.13 28.55-0.95 28.65-0.95L28.65-0.95Q29.1-0.95 33.85-4.9 38.6-8.85 39-8.85L39-8.85Q39.75-8.85 39.75-8.15L39.75-8.15Q39.75-7.7 38.02-5.08 36.3-2.45 35.75-1.5L35.75-1.5Q35.8-1.45 35.97-1.45 36.15-1.45 38-2.78 39.85-4.1 41.85-5.6 43.85-7.1 44.2-7.33 44.55-7.55 44.85-7.55L44.85-7.55Q45.45-7.5 45.45-6.85L45.45-6.85Q45.45-6.6 43.72-4.23 42-1.85 42-1.2L42-1.2Q42-0.75 43.07-0.75 44.15-0.75 46.25-1.73 48.35-2.7 49.95-3.7L49.95-3.7 51.55-4.7Q51.6-4.6 51.6-4.3 51.6-4 51.15-3.8L51.15-3.8Q44.4 0.8 41.75 0.8L41.75 0.8Q40.2 0.8 40.2-0.4L40.2-0.4Q40.2-1.55 40.87-2.6 41.55-3.65 42.05-4.38 42.55-5.1 42.55-5.15L42.55-5.15Q35.85-0.25 34.82 0.23 33.8 0.7 33.35 0.7 32.9 0.7 32.9-0.3L32.9-0.3 36.5-5.9Q35.9-5.65 32.6-3.15 29.3-0.65 27.45 1L27.45 1Q26.75 1.85 26.1 1.85L26.1 1.85Q25.45 1.7 25.45 1L25.45 1Q25.45 0.8 27.27-1.95 29.1-4.7 29.1-4.93 29.1-5.15 28.97-5.15 28.85-5.15 28.55-4.98 28.25-4.8 27.85-4.5 27.45-4.2 27.35-4.15ZM59.1-15.25L59.1-15.25Q59.85-15.25 59.85-14.5 59.85-13.75 59.15-12.98 58.45-12.2 57.6-12.2L57.6-12.2Q56.9-12.2 56.9-13.18 56.9-14.15 57.7-14.7 58.5-15.25 59.1-15.25ZM54.4-8.65L54.4-8.65Q54.65-9.05 55.1-9.05 55.55-9.05 56-8.6L56-8.6Q56-8.4 55.35-7.7 54.7-7 53.15-4.58 51.6-2.15 51.6-1.35L51.6-1.35Q51.6-0.85 52.35-0.75L52.35-0.75Q53.35-0.75 55.45-1.73 57.55-2.7 59.15-3.7L59.15-3.7 60.75-4.7Q60.8-4.6 60.8-4.3 60.8-4 60.35-3.8L60.35-3.8Q53.6 0.8 50.95 0.8L50.95 0.8Q49.65 0.8 49.65-0.5 49.65-1.8 51.07-4.13 52.5-6.45 54.4-8.65ZM59.29-3.8L59.29-3.8Q60.24-4.35 61.79-5.55L61.79-5.55Q65.59-8.55 65.84-8.55L65.84-8.55Q66.59-8.55 66.59-7.9 66.59-7.25 65.82-5.9 65.04-4.55 64.07-3.1 63.09-1.65 62.94-1.35L62.94-1.35Q62.99-1.3 63.17-1.3 63.34-1.3 65.14-2.63 66.94-3.95 68.89-5.43 70.84-6.9 71.19-7.13 71.54-7.35 71.84-7.35L71.84-7.35Q72.44-7.3 72.44-6.65L72.44-6.65Q72.44-6.4 70.74-4.13 69.04-1.85 69.04-1.2L69.04-1.2Q69.04-0.75 70.12-0.75 71.19-0.75 73.29-1.73 75.39-2.7 76.99-3.7L76.99-3.7 78.59-4.7Q78.64-4.6 78.64-4.3 78.64-4 78.19-3.8L78.19-3.8Q71.44 0.8 68.79 0.8L68.79 0.8Q67.24 0.8 67.24-0.4L67.24-0.4Q67.24-1.55 67.92-2.6 68.59-3.65 69.09-4.38 69.59-5.1 69.59-5.15L69.59-5.15Q67.29-3.5 64.14-1.2 60.99 1.1 60.59 1.1L60.59 1.1Q60.29 1.1 60.29 0.4 60.29-0.3 62.27-3.25 64.24-6.2 64.24-6.4 64.24-6.6 64.14-6.6L64.14-6.6 63.64-6.35 61.14-4.35Q60.89-4.15 60.19-3.7 59.49-3.25 59.32-3.25 59.14-3.25 59.14-3.48 59.14-3.7 59.29-3.8ZM78.49-4.85L78.49-4.85Q75.49-4.85 75.49-6.15L75.49-6.15Q75.49-7.7 79.04-9.83 82.59-11.95 85.44-11.95L85.44-11.95Q86.89-11.95 86.89-11.05L86.89-11.05Q86.89-10.55 86.14-9.95 85.39-9.35 84.69-9 83.99-8.65 83.89-8.65L83.89-8.65Q83.59-8.65 83.49-8.9L83.49-8.9Q83.39-9.25 84.02-9.63 84.64-10 84.64-10.45 84.64-10.9 83.52-10.9 82.39-10.9 79.99-9.33 77.59-7.75 77.59-6.75L77.59-6.75Q77.59-6 79.34-6L79.34-6Q79.64-6 80.44-6.05 81.24-6.1 81.24-5.85 81.24-5.6 78.77-4.05 76.29-2.5 76.29-1.4L76.29-1.4Q76.29-0.15 77.92-0.15 79.54-0.15 81.59-1L81.59-1Q84.89-2.45 87.59-4.1L87.59-4.1 88.54-4.7Q88.59-4.6 88.59-4.3 88.59-4 88.14-3.8L88.14-3.8Q85.49-2 82.34-0.38 79.19 1.25 76.67 1.25 74.14 1.25 74.14-0.43 74.14-2.1 78.49-4.85Z" opacity="1" transform="matrix(1,0,0,1,0,0)" fill="#ffffff" class="wordmark-text-0" data-fill-palette-color="quaternary" id="text-0"></path></svg></g></svg></g></svg></g></svg></g><g transform="matrix(1,0,0,1,36.67199999999999,0)"><svg viewBox="0 0 118.65600000000002 104.53675787233108" height="104.53675787233108" width="118.65600000000002"><g><svg xmlns="http://www.w3.org/2000/svg" xmlns:xlink="http://www.w3.org/1999/xlink" version="1.1" x="0" y="0" viewBox="6.300000190734863 11.5 87.39999389648438 77" style="enable-background:new 0 0 100 100;" xml:space="preserve" height="104.53675787233108" width="118.65600000000002" class="icon-icon-0" data-fill-palette-color="quaternary" id="icon-0"><path d="M72.3 12.3L72.3 12.3 72.3 12.3l-0.4-0.8H28.2L6.3 50l21.8 38.5h43.7L93.7 50 72.3 12.3zM33.3 25.3L9.9 47.7l18.6-32.8L33.3 25.3zM70.7 14.8l6.4 35.7L36.9 25.8 70.7 14.8zM35.5 27.3l41 25.2-41 23.3V27.3zM77 54.5l-7.2 30.8-32.6-8.1L77 54.5zM33.5 75L9.9 50.5l23.6-22.7V75zM33.2 77.6l-4.6 7.7L11.5 55.1 33.2 77.6zM35 78.6l31.4 7.9H30.2L35 78.6zM79.3 53.3l11.6-2.5L72.1 84 79.3 53.3zM90.7 48.9l-11.4 2.5-5.9-33.1L90.7 48.9zM35 24.3l-5-10.8h38.2L35 24.3z" fill="#ffffff" data-fill-palette-color="quaternary"></path></svg></g></svg></g><g></g></svg></g></svg></g></svg></g></svg></g><defs></defs></svg><rect width="320" height="360" fill="none" stroke="none" visibility="hidden"></rect></g></svg></g></svg>